<mxfile host="app.diagrams.net" modified="2023-07-24T06:13:18.617Z" agent="Mozilla/5.0 (Windows NT 10.0; Win64; x64) AppleWebKit/537.36 (KHTML, like Gecko) Chrome/115.0.0.0 Safari/537.36" etag="hu4nZ0v07rK1PPEyoXPW" version="21.6.5" type="github">
  <diagram name="페이지-1" id="84eL5CcKc8GB2vDpbTNu">
    <mxGraphModel dx="823" dy="1300" grid="1" gridSize="10" guides="1" tooltips="1" connect="1" arrows="1" fold="1" page="1" pageScale="1" pageWidth="827" pageHeight="1169" math="0" shadow="0">
      <root>
        <mxCell id="0" />
        <mxCell id="1" parent="0" />
        <mxCell id="pc0s4OiJ3hQvnUH-QxLm-1" value="고객" style="whiteSpace=wrap;html=1;align=center;" parent="1" vertex="1">
          <mxGeometry x="490" y="135" width="100" height="40" as="geometry" />
        </mxCell>
        <mxCell id="pc0s4OiJ3hQvnUH-QxLm-3" value="고객명" style="ellipse;whiteSpace=wrap;html=1;align=center;" parent="1" vertex="1">
          <mxGeometry x="314" y="185" width="100" height="40" as="geometry" />
        </mxCell>
        <mxCell id="pc0s4OiJ3hQvnUH-QxLm-4" value="" style="endArrow=none;html=1;rounded=0;exitX=0.25;exitY=1;exitDx=0;exitDy=0;entryX=0.5;entryY=0;entryDx=0;entryDy=0;" parent="1" source="pc0s4OiJ3hQvnUH-QxLm-1" target="pc0s4OiJ3hQvnUH-QxLm-3" edge="1">
          <mxGeometry relative="1" as="geometry">
            <mxPoint x="370" y="365" as="sourcePoint" />
            <mxPoint x="530" y="365" as="targetPoint" />
          </mxGeometry>
        </mxCell>
        <mxCell id="pc0s4OiJ3hQvnUH-QxLm-6" value="지역" style="ellipse;whiteSpace=wrap;html=1;align=center;" parent="1" vertex="1">
          <mxGeometry x="413.5" y="25" width="100" height="40" as="geometry" />
        </mxCell>
        <mxCell id="pc0s4OiJ3hQvnUH-QxLm-7" value="주소" style="ellipse;whiteSpace=wrap;html=1;align=center;" parent="1" vertex="1">
          <mxGeometry x="330" y="55" width="100" height="40" as="geometry" />
        </mxCell>
        <mxCell id="pc0s4OiJ3hQvnUH-QxLm-8" value="&lt;u&gt;이메일&lt;/u&gt;" style="ellipse;whiteSpace=wrap;html=1;align=center;" parent="1" vertex="1">
          <mxGeometry x="630" y="50" width="100" height="50" as="geometry" />
        </mxCell>
        <mxCell id="pc0s4OiJ3hQvnUH-QxLm-9" value="&lt;u&gt;전화번호&lt;/u&gt;" style="ellipse;whiteSpace=wrap;html=1;align=center;" parent="1" vertex="1">
          <mxGeometry x="510" y="25" width="100" height="40" as="geometry" />
        </mxCell>
        <mxCell id="pc0s4OiJ3hQvnUH-QxLm-10" value="" style="endArrow=none;html=1;rounded=0;entryX=0.59;entryY=0.975;entryDx=0;entryDy=0;entryPerimeter=0;exitX=0;exitY=0;exitDx=0;exitDy=0;" parent="1" source="pc0s4OiJ3hQvnUH-QxLm-1" target="pc0s4OiJ3hQvnUH-QxLm-6" edge="1">
          <mxGeometry relative="1" as="geometry">
            <mxPoint x="540" y="175" as="sourcePoint" />
            <mxPoint x="700" y="305" as="targetPoint" />
          </mxGeometry>
        </mxCell>
        <mxCell id="pc0s4OiJ3hQvnUH-QxLm-11" value="" style="endArrow=none;html=1;rounded=0;exitX=0;exitY=1;exitDx=0;exitDy=0;entryX=0.5;entryY=0;entryDx=0;entryDy=0;" parent="1" source="pc0s4OiJ3hQvnUH-QxLm-1" target="pc0s4OiJ3hQvnUH-QxLm-14" edge="1">
          <mxGeometry relative="1" as="geometry">
            <mxPoint x="450" y="345" as="sourcePoint" />
            <mxPoint x="610" y="345" as="targetPoint" />
          </mxGeometry>
        </mxCell>
        <mxCell id="pc0s4OiJ3hQvnUH-QxLm-12" value="" style="endArrow=none;html=1;rounded=0;exitX=0.35;exitY=-0.025;exitDx=0;exitDy=0;entryX=0.5;entryY=1;entryDx=0;entryDy=0;exitPerimeter=0;" parent="1" source="pc0s4OiJ3hQvnUH-QxLm-1" target="pc0s4OiJ3hQvnUH-QxLm-8" edge="1">
          <mxGeometry relative="1" as="geometry">
            <mxPoint x="540" y="305" as="sourcePoint" />
            <mxPoint x="700" y="305" as="targetPoint" />
          </mxGeometry>
        </mxCell>
        <mxCell id="pc0s4OiJ3hQvnUH-QxLm-13" value="" style="endArrow=none;html=1;rounded=0;exitX=0.11;exitY=-0.025;exitDx=0;exitDy=0;exitPerimeter=0;entryX=0.5;entryY=1;entryDx=0;entryDy=0;" parent="1" source="pc0s4OiJ3hQvnUH-QxLm-1" edge="1" target="pc0s4OiJ3hQvnUH-QxLm-9">
          <mxGeometry relative="1" as="geometry">
            <mxPoint x="580" y="135" as="sourcePoint" />
            <mxPoint x="460" y="65" as="targetPoint" />
          </mxGeometry>
        </mxCell>
        <mxCell id="pc0s4OiJ3hQvnUH-QxLm-14" value="가입일" style="ellipse;whiteSpace=wrap;html=1;align=center;" parent="1" vertex="1">
          <mxGeometry x="320" y="130" width="100" height="40" as="geometry" />
        </mxCell>
        <mxCell id="pc0s4OiJ3hQvnUH-QxLm-15" value="" style="endArrow=none;html=1;rounded=0;exitX=1;exitY=0.5;exitDx=0;exitDy=0;entryX=0;entryY=0.5;entryDx=0;entryDy=0;" parent="1" source="pc0s4OiJ3hQvnUH-QxLm-7" target="pc0s4OiJ3hQvnUH-QxLm-1" edge="1">
          <mxGeometry relative="1" as="geometry">
            <mxPoint x="540" y="305" as="sourcePoint" />
            <mxPoint x="700" y="305" as="targetPoint" />
          </mxGeometry>
        </mxCell>
        <mxCell id="pc0s4OiJ3hQvnUH-QxLm-16" value="&lt;u&gt;&lt;b&gt;&lt;font color=&quot;#ff3333&quot;&gt;고객코드&lt;/font&gt;&lt;/b&gt;&lt;/u&gt;" style="ellipse;whiteSpace=wrap;html=1;align=center;" parent="1" vertex="1">
          <mxGeometry x="590" y="225" width="100" height="40" as="geometry" />
        </mxCell>
        <mxCell id="pc0s4OiJ3hQvnUH-QxLm-17" value="" style="endArrow=none;html=1;rounded=0;exitX=0.75;exitY=1;exitDx=0;exitDy=0;entryX=0.05;entryY=0.275;entryDx=0;entryDy=0;entryPerimeter=0;" parent="1" source="pc0s4OiJ3hQvnUH-QxLm-1" target="pc0s4OiJ3hQvnUH-QxLm-16" edge="1">
          <mxGeometry relative="1" as="geometry">
            <mxPoint x="510" y="275" as="sourcePoint" />
            <mxPoint x="670" y="275" as="targetPoint" />
          </mxGeometry>
        </mxCell>
        <mxCell id="7r3LdCNUG9qe8QvpHPaR-2" value="지역" style="whiteSpace=wrap;html=1;align=center;" vertex="1" parent="1">
          <mxGeometry x="480" y="540" width="100" height="40" as="geometry" />
        </mxCell>
        <mxCell id="7r3LdCNUG9qe8QvpHPaR-3" value="지역명" style="ellipse;whiteSpace=wrap;html=1;align=center;" vertex="1" parent="1">
          <mxGeometry x="360" y="610" width="100" height="40" as="geometry" />
        </mxCell>
        <mxCell id="7r3LdCNUG9qe8QvpHPaR-4" value="&lt;u&gt;&lt;font color=&quot;#ff3333&quot;&gt;지역코드&lt;/font&gt;&lt;/u&gt;" style="ellipse;whiteSpace=wrap;html=1;align=center;" vertex="1" parent="1">
          <mxGeometry x="360" y="480" width="100" height="40" as="geometry" />
        </mxCell>
        <mxCell id="7r3LdCNUG9qe8QvpHPaR-5" value="" style="endArrow=none;html=1;rounded=0;exitX=1;exitY=0;exitDx=0;exitDy=0;entryX=0.5;entryY=1;entryDx=0;entryDy=0;" edge="1" parent="1" source="7r3LdCNUG9qe8QvpHPaR-3" target="7r3LdCNUG9qe8QvpHPaR-2">
          <mxGeometry relative="1" as="geometry">
            <mxPoint x="480" y="580" as="sourcePoint" />
            <mxPoint x="640" y="580" as="targetPoint" />
          </mxGeometry>
        </mxCell>
        <mxCell id="7r3LdCNUG9qe8QvpHPaR-6" value="" style="endArrow=none;html=1;rounded=0;exitX=1;exitY=1;exitDx=0;exitDy=0;" edge="1" parent="1" source="7r3LdCNUG9qe8QvpHPaR-4">
          <mxGeometry relative="1" as="geometry">
            <mxPoint x="480" y="580" as="sourcePoint" />
            <mxPoint x="520" y="540" as="targetPoint" />
          </mxGeometry>
        </mxCell>
        <mxCell id="7r3LdCNUG9qe8QvpHPaR-7" value="제품" style="whiteSpace=wrap;html=1;align=center;" vertex="1" parent="1">
          <mxGeometry x="150" y="349" width="100" height="40" as="geometry" />
        </mxCell>
        <mxCell id="7r3LdCNUG9qe8QvpHPaR-9" value="제품" style="ellipse;whiteSpace=wrap;html=1;align=center;" vertex="1" parent="1">
          <mxGeometry x="660" y="130" width="100" height="40" as="geometry" />
        </mxCell>
        <mxCell id="7r3LdCNUG9qe8QvpHPaR-10" value="" style="endArrow=none;html=1;rounded=0;entryX=0.5;entryY=1;entryDx=0;entryDy=0;exitX=1;exitY=0.5;exitDx=0;exitDy=0;" edge="1" parent="1" source="pc0s4OiJ3hQvnUH-QxLm-1" target="7r3LdCNUG9qe8QvpHPaR-9">
          <mxGeometry relative="1" as="geometry">
            <mxPoint x="320" y="490" as="sourcePoint" />
            <mxPoint x="480" y="490" as="targetPoint" />
          </mxGeometry>
        </mxCell>
        <mxCell id="7r3LdCNUG9qe8QvpHPaR-12" value="제품명" style="ellipse;whiteSpace=wrap;html=1;align=center;" vertex="1" parent="1">
          <mxGeometry x="50" y="285" width="100" height="40" as="geometry" />
        </mxCell>
        <mxCell id="7r3LdCNUG9qe8QvpHPaR-13" value="&lt;u&gt;&lt;font color=&quot;#ff3333&quot;&gt;제품코드&lt;/font&gt;&lt;/u&gt;" style="ellipse;whiteSpace=wrap;html=1;align=center;" vertex="1" parent="1">
          <mxGeometry x="150" y="265" width="100" height="40" as="geometry" />
        </mxCell>
        <mxCell id="7r3LdCNUG9qe8QvpHPaR-14" value="" style="endArrow=none;html=1;rounded=0;entryX=0.5;entryY=1;entryDx=0;entryDy=0;exitX=0.5;exitY=0;exitDx=0;exitDy=0;" edge="1" parent="1" source="7r3LdCNUG9qe8QvpHPaR-7" target="7r3LdCNUG9qe8QvpHPaR-13">
          <mxGeometry relative="1" as="geometry">
            <mxPoint x="-10" y="295" as="sourcePoint" />
            <mxPoint x="150" y="295" as="targetPoint" />
          </mxGeometry>
        </mxCell>
        <mxCell id="7r3LdCNUG9qe8QvpHPaR-15" value="제품구분" style="ellipse;whiteSpace=wrap;html=1;align=center;" vertex="1" parent="1">
          <mxGeometry x="20" y="335" width="100" height="40" as="geometry" />
        </mxCell>
        <mxCell id="7r3LdCNUG9qe8QvpHPaR-17" value="" style="endArrow=none;html=1;rounded=0;exitX=1;exitY=0.5;exitDx=0;exitDy=0;entryX=0;entryY=0;entryDx=0;entryDy=0;" edge="1" parent="1" source="7r3LdCNUG9qe8QvpHPaR-15" target="7r3LdCNUG9qe8QvpHPaR-7">
          <mxGeometry relative="1" as="geometry">
            <mxPoint x="-10" y="295" as="sourcePoint" />
            <mxPoint x="150" y="295" as="targetPoint" />
          </mxGeometry>
        </mxCell>
        <mxCell id="7r3LdCNUG9qe8QvpHPaR-18" value="" style="endArrow=none;html=1;rounded=0;entryX=0;entryY=0;entryDx=0;entryDy=0;exitX=0.5;exitY=1;exitDx=0;exitDy=0;" edge="1" parent="1" source="7r3LdCNUG9qe8QvpHPaR-12" target="7r3LdCNUG9qe8QvpHPaR-7">
          <mxGeometry relative="1" as="geometry">
            <mxPoint x="-10" y="295" as="sourcePoint" />
            <mxPoint x="150" y="295" as="targetPoint" />
          </mxGeometry>
        </mxCell>
        <mxCell id="7r3LdCNUG9qe8QvpHPaR-19" value="제품색상" style="ellipse;shape=doubleEllipse;margin=3;whiteSpace=wrap;html=1;align=center;" vertex="1" parent="1">
          <mxGeometry x="260" y="275" width="100" height="40" as="geometry" />
        </mxCell>
        <mxCell id="7r3LdCNUG9qe8QvpHPaR-20" value="" style="endArrow=none;html=1;rounded=0;entryX=1;entryY=0;entryDx=0;entryDy=0;exitX=0.326;exitY=1.043;exitDx=0;exitDy=0;exitPerimeter=0;" edge="1" parent="1" source="7r3LdCNUG9qe8QvpHPaR-19" target="7r3LdCNUG9qe8QvpHPaR-7">
          <mxGeometry relative="1" as="geometry">
            <mxPoint x="-10" y="295" as="sourcePoint" />
            <mxPoint x="150" y="295" as="targetPoint" />
          </mxGeometry>
        </mxCell>
        <mxCell id="7r3LdCNUG9qe8QvpHPaR-21" value="가격" style="ellipse;whiteSpace=wrap;html=1;align=center;" vertex="1" parent="1">
          <mxGeometry x="20" y="400" width="100" height="40" as="geometry" />
        </mxCell>
        <mxCell id="7r3LdCNUG9qe8QvpHPaR-22" value="" style="endArrow=none;html=1;rounded=0;entryX=0;entryY=0.5;entryDx=0;entryDy=0;" edge="1" parent="1" target="7r3LdCNUG9qe8QvpHPaR-21">
          <mxGeometry relative="1" as="geometry">
            <mxPoint x="150" y="390" as="sourcePoint" />
            <mxPoint x="150" y="295" as="targetPoint" />
          </mxGeometry>
        </mxCell>
        <mxCell id="7r3LdCNUG9qe8QvpHPaR-23" value="관리" style="shape=rhombus;perimeter=rhombusPerimeter;whiteSpace=wrap;html=1;align=center;" vertex="1" parent="1">
          <mxGeometry x="470" y="390" width="120" height="60" as="geometry" />
        </mxCell>
        <mxCell id="7r3LdCNUG9qe8QvpHPaR-26" value="" style="endArrow=none;html=1;rounded=0;entryX=0.5;entryY=0;entryDx=0;entryDy=0;exitX=0.383;exitY=0.989;exitDx=0;exitDy=0;exitPerimeter=0;" edge="1" parent="1" source="pc0s4OiJ3hQvnUH-QxLm-1" target="7r3LdCNUG9qe8QvpHPaR-23">
          <mxGeometry relative="1" as="geometry">
            <mxPoint x="330" y="490" as="sourcePoint" />
            <mxPoint x="490" y="490" as="targetPoint" />
          </mxGeometry>
        </mxCell>
        <mxCell id="7r3LdCNUG9qe8QvpHPaR-27" value="" style="endArrow=none;html=1;rounded=0;entryX=0.5;entryY=1;entryDx=0;entryDy=0;" edge="1" parent="1" target="7r3LdCNUG9qe8QvpHPaR-23">
          <mxGeometry relative="1" as="geometry">
            <mxPoint x="530" y="540" as="sourcePoint" />
            <mxPoint x="490" y="490" as="targetPoint" />
          </mxGeometry>
        </mxCell>
        <mxCell id="7r3LdCNUG9qe8QvpHPaR-29" value="" style="endArrow=none;html=1;rounded=0;entryX=0;entryY=1;entryDx=0;entryDy=0;exitX=1;exitY=0.5;exitDx=0;exitDy=0;" edge="1" parent="1" source="7r3LdCNUG9qe8QvpHPaR-30" target="pc0s4OiJ3hQvnUH-QxLm-1">
          <mxGeometry relative="1" as="geometry">
            <mxPoint x="360" y="570" as="sourcePoint" />
            <mxPoint x="520" y="570" as="targetPoint" />
          </mxGeometry>
        </mxCell>
        <mxCell id="7r3LdCNUG9qe8QvpHPaR-30" value="구매" style="shape=rhombus;perimeter=rhombusPerimeter;whiteSpace=wrap;html=1;align=center;" vertex="1" parent="1">
          <mxGeometry x="140" y="470" width="120" height="60" as="geometry" />
        </mxCell>
        <mxCell id="7r3LdCNUG9qe8QvpHPaR-31" value="" style="endArrow=none;html=1;rounded=0;exitX=0.5;exitY=1;exitDx=0;exitDy=0;entryX=0.5;entryY=0;entryDx=0;entryDy=0;" edge="1" parent="1" source="7r3LdCNUG9qe8QvpHPaR-7" target="7r3LdCNUG9qe8QvpHPaR-30">
          <mxGeometry relative="1" as="geometry">
            <mxPoint x="360" y="570" as="sourcePoint" />
            <mxPoint x="520" y="570" as="targetPoint" />
          </mxGeometry>
        </mxCell>
        <mxCell id="7r3LdCNUG9qe8QvpHPaR-33" value="구매일자" style="ellipse;whiteSpace=wrap;html=1;align=center;" vertex="1" parent="1">
          <mxGeometry x="220" y="565" width="100" height="40" as="geometry" />
        </mxCell>
        <mxCell id="7r3LdCNUG9qe8QvpHPaR-34" value="구매수량" style="ellipse;whiteSpace=wrap;html=1;align=center;" vertex="1" parent="1">
          <mxGeometry x="100" y="564.5" width="100" height="40" as="geometry" />
        </mxCell>
        <mxCell id="7r3LdCNUG9qe8QvpHPaR-37" value="" style="endArrow=none;html=1;rounded=0;exitX=0;exitY=1;exitDx=0;exitDy=0;entryX=0.5;entryY=0;entryDx=0;entryDy=0;" edge="1" parent="1" source="7r3LdCNUG9qe8QvpHPaR-30" target="7r3LdCNUG9qe8QvpHPaR-34">
          <mxGeometry relative="1" as="geometry">
            <mxPoint x="220" y="590" as="sourcePoint" />
            <mxPoint x="380" y="590" as="targetPoint" />
          </mxGeometry>
        </mxCell>
        <mxCell id="7r3LdCNUG9qe8QvpHPaR-38" value="" style="endArrow=none;html=1;rounded=0;exitX=1;exitY=1;exitDx=0;exitDy=0;entryX=0.5;entryY=0;entryDx=0;entryDy=0;" edge="1" parent="1" source="7r3LdCNUG9qe8QvpHPaR-30" target="7r3LdCNUG9qe8QvpHPaR-33">
          <mxGeometry relative="1" as="geometry">
            <mxPoint x="220" y="590" as="sourcePoint" />
            <mxPoint x="380" y="590" as="targetPoint" />
          </mxGeometry>
        </mxCell>
        <mxCell id="7r3LdCNUG9qe8QvpHPaR-39" value="&lt;b&gt;Conceptual Data Modeling(ERD)&lt;/b&gt;" style="whiteSpace=wrap;html=1;align=center;" vertex="1" parent="1">
          <mxGeometry x="80" y="30" width="220" height="40" as="geometry" />
        </mxCell>
      </root>
    </mxGraphModel>
  </diagram>
</mxfile>
